# Blender v2.74 (sub 0) OBJ File: ''
# www.blender.org
mtllib missile.mtl
o Cylinder001.001
v 16.223200 10.838321 -741.096619
v 64.342201 45.798813 -700.362183
v 79.223099 0.000114 -700.362305
v 19.744801 0.000121 -741.096619
v 7.003700 17.536720 -741.096619
v 25.383499 74.103912 -700.362183
v -4.392300 17.536720 -741.096619
v -22.772100 74.103912 -700.362183
v -13.611800 10.838321 -741.096619
v -61.730801 45.798813 -700.362183
v -17.133400 0.000121 -741.096619
v -76.611702 0.000114 -700.362183
v -13.611800 -10.838078 -741.096619
v -61.730801 -45.798584 -700.362183
v -4.392300 -17.536480 -741.096619
v -22.772100 -74.103683 -700.362183
v 7.003700 -17.536480 -741.096619
v 25.383499 -74.103683 -700.362183
v 16.223200 -10.838078 -741.096619
v 64.342201 -45.798584 -700.362183
v 74.531403 53.201210 1180.321289
v 29.275400 -86.082191 1180.321289
v 74.531403 -53.201790 1180.321289
v 91.817596 -0.000292 1180.321289
v 91.817596 0.000104 -635.462219
v 74.531403 53.201603 -635.462097
v 29.275400 86.081612 1180.321289
v 29.275400 86.082008 -635.462097
v -26.664000 86.081612 1180.321289
v -26.664000 86.082008 -635.462097
v -71.919899 53.201210 1180.321289
v -71.919899 53.201603 -635.462097
v -89.206100 -0.000292 1180.321289
v -89.206100 0.000104 -635.462097
v -71.919899 -53.201889 1180.321289
v -71.919899 -53.201496 -635.462097
v -26.664000 -86.082191 1180.321289
v -26.664000 -86.081795 -635.462097
v 29.275400 -86.081795 -635.462097
v 74.531403 -53.201397 -635.462097
v 13.751100 84.891556 870.299377
v -0.358500 258.666534 945.875671
v -0.358500 258.666504 1069.597900
v 13.751100 84.891525 1068.716553
v -14.468100 84.891556 870.299377
v -14.468200 84.891525 1068.716553
v 13.751200 84.891685 108.310814
v -0.358500 238.598572 169.237244
v -0.358500 238.598541 344.713531
v 13.751100 84.891632 405.639893
v -14.468100 84.891685 108.310814
v -14.468100 84.891632 405.639893
v -14.056300 -83.418945 870.299377
v 0.053300 -257.193939 945.875549
v 0.053300 -257.193970 1069.597900
v -14.056300 -83.418976 1068.716553
v 14.162900 -83.418945 870.299377
v 14.162900 -83.418976 1068.716553
v -82.908203 12.304958 870.299377
v -256.683197 -1.804754 945.875610
v -256.683197 -1.804674 1069.597900
v -82.908203 12.304926 1068.716553
v -82.908203 -15.914342 870.299377
v -82.908203 -15.914374 1068.716553
v 86.337799 -15.502542 870.299622
v 260.112793 -1.392954 945.875671
v 260.112793 -1.392974 1069.597900
v 86.337799 -15.502575 1068.716797
v 86.337799 12.716658 870.299622
v 86.337799 12.716725 1068.716797
v 86.337799 -13.900218 108.310799
v 240.044693 0.209372 169.237198
v 240.044693 0.209344 344.713501
v 86.337799 -13.900266 405.639893
v 86.337799 14.318982 108.310799
v 86.337799 14.318934 405.639893
v -83.695396 13.907182 108.310799
v -237.402298 -0.202428 169.237198
v -237.402298 -0.202456 344.713501
v -83.695503 13.907134 405.639893
v -83.695396 -14.312018 108.310799
v -83.695503 -14.312066 405.639893
v -14.056300 -84.305313 108.310783
v 0.053400 -238.012238 169.237152
v 0.053300 -238.012268 344.713470
v -14.056300 -84.305367 405.639893
v 14.163000 -84.305313 108.310783
v 14.162900 -84.305367 405.639893
vt 0.201800 0.762900
vt 0.300300 0.762900
vt 0.300300 0.789000
vt 0.103300 0.789000
vt 0.103300 0.762900
vt 0.004800 0.762900
vt 0.891400 0.762900
vt 0.989900 0.762900
vt 0.989900 0.789000
vt 0.792900 0.789000
vt 0.792900 0.762900
vt 0.694400 0.762900
vt 0.595900 0.789000
vt 0.595900 0.762900
vt 0.497400 0.762900
vt 0.398900 0.762900
vt 0.497400 0.789000
vt 0.294900 0.876700
vt 0.352500 0.918600
vt 0.344100 0.892700
vt 0.162900 0.804800
vt 0.211000 0.839700
vt 0.229300 0.896200
vt 0.300300 0.006700
vt 0.300300 0.740100
vt 0.201800 0.740100
vt 0.201800 0.006700
vt 0.103300 0.740100
vt 0.103300 0.006700
vt 0.004800 0.740100
vt 0.989900 0.006700
vt 0.989900 0.740100
vt 0.891400 0.740100
vt 0.792900 0.006700
vt 0.891400 0.006700
vt 0.792900 0.740100
vt 0.694400 0.740100
vt 0.694400 0.006700
vt 0.595900 0.740100
vt 0.595900 0.006700
vt 0.497400 0.740100
vt 0.497400 0.006700
vt 0.398900 0.740100
vt 0.398900 0.006700
vt 0.272900 0.892700
vt 0.264500 0.918600
vt 0.272900 0.944400
vt 0.294900 0.960400
vt 0.322100 0.960400
vt 0.344100 0.944400
vt 0.103500 0.804800
vt 0.037000 0.896200
vt 0.055400 0.952700
vt 0.103500 0.987700
vt 0.162900 0.987700
vt 0.211000 0.952700
vt 0.529600 0.844300
vt 0.521700 0.955500
vt 0.410400 0.955500
vt 0.649400 0.955800
vt 0.538100 0.972500
vt 0.649400 0.989600
vt 0.537400 0.813700
vt 0.648800 0.813700
vt 0.649500 0.844500
vt 0.854700 0.844300
vt 0.846800 0.955500
vt 0.735500 0.955500
vt 0.974500 0.955800
vt 0.863200 0.972500
vt 0.974500 0.989600
vt 0.862500 0.813700
vt 0.973900 0.813700
vt 0.974600 0.844500
vt 0.201800 0.789000
vt 0.004800 0.789000
vt 0.891400 0.789000
vt 0.694400 0.789000
vt 0.398900 0.789000
vt 0.322100 0.876700
vt 0.004800 0.006700
vt 0.055400 0.839700
vt 0.410400 0.844200
vt 0.735500 0.844200
vn 0.692500 0.503100 -0.517000
vn 0.856000 -0.000000 -0.517000
vn 0.347700 0.000000 -0.937600
vn 0.107400 0.330700 -0.937600
vn 0.264500 0.814100 -0.517000
vn -0.264500 0.814100 -0.517000
vn -0.692500 0.503100 -0.517000
vn -0.107400 0.330700 -0.937600
vn -0.347700 0.000000 -0.937600
vn -0.856000 0.000000 -0.517000
vn -0.692500 -0.503100 -0.517000
vn -0.107400 -0.330700 -0.937600
vn -0.264500 -0.814100 -0.517000
vn 0.264500 -0.814100 -0.517000
vn 0.692500 -0.503100 -0.517000
vn 0.107400 -0.330700 -0.937600
vn 0.281300 -0.204400 -0.937600
vn 0.000000 0.000000 1.000000
vn 1.000000 -0.000000 -0.000000
vn 0.995600 0.000000 -0.093900
vn 0.805400 0.585200 -0.093900
vn 0.809000 0.587800 0.000000
vn 0.307700 0.946900 -0.093900
vn 0.309000 0.951100 0.000000
vn -0.307700 0.946900 -0.093900
vn -0.309000 0.951100 0.000000
vn -0.805400 0.585200 -0.093900
vn -1.000000 0.000000 0.000000
vn -0.809000 0.587800 0.000000
vn -0.995600 0.000000 -0.093900
vn -0.805400 -0.585200 -0.093900
vn -0.809000 -0.587800 -0.000000
vn -0.307600 -0.946900 -0.093900
vn -0.309000 -0.951100 -0.000000
vn 0.307700 -0.946900 -0.093900
vn 0.309000 -0.951100 -0.000000
vn 0.805400 -0.585200 -0.093900
vn 0.809000 -0.587800 -0.000000
vn -0.281300 -0.204400 -0.937600
vn -0.281300 0.204400 -0.937600
vn 0.281300 0.204400 -0.937600
vn 0.996700 0.080900 0.000000
vn -0.996700 0.080900 -0.000000
vn 0.000000 -0.005100 1.000000
vn 0.000000 0.398800 -0.917000
vn 0.995800 0.091400 0.000000
vn -0.995800 0.091400 0.000000
vn 0.000000 0.368500 0.929600
vn 0.000000 0.368500 -0.929600
vn -0.996700 -0.080900 -0.000000
vn 0.996700 -0.080900 -0.000000
vn 0.000000 0.005100 1.000000
vn 0.000000 -0.398800 -0.917000
vn -0.080900 0.996700 -0.000000
vn -0.080900 -0.996700 0.000000
vn 0.005100 0.000000 1.000000
vn -0.398800 0.000000 -0.917000
vn 0.080900 -0.996700 -0.000000
vn 0.080900 0.996700 -0.000000
vn -0.005100 0.000000 1.000000
vn 0.398800 0.000000 -0.917000
vn 0.091400 -0.995800 -0.000000
vn 0.091400 0.995800 0.000000
vn 0.368500 0.000000 0.929600
vn 0.368500 0.000000 -0.929600
vn -0.091400 0.995800 0.000000
vn -0.091400 -0.995800 -0.000000
vn -0.368500 0.000000 0.929600
vn -0.368500 0.000000 -0.929600
vn -0.995800 -0.091400 -0.000000
vn 0.995800 -0.091400 0.000000
vn 0.000000 -0.368500 0.929600
vn 0.000000 -0.368500 -0.929600
usemtl 04___Default.001
s 1
f 2/1/1 3/2/2 4/3/3
f 5/4/4 6/5/5 2/1/1
f 8/6/6 6/5/5 5/4/4
f 10/7/7 8/8/6 7/9/8
f 11/10/9 12/11/10 10/7/7
f 14/12/11 12/11/10 11/10/9
f 15/13/12 16/14/13 14/12/11
f 18/15/14 16/14/13 15/13/12
f 20/16/15 18/15/14 17/17/16
f 4/3/3 3/2/2 20/16/15
f 15/18/12 4/19/3 19/20/17
f 22/21/18 23/22/18 24/23/18
f 24/24/19 25/25/20 26/26/21
f 21/27/22 26/26/21 28/28/23
f 27/29/24 28/28/23 30/30/25
f 29/31/26 30/32/25 32/33/27
f 33/34/28 31/35/29 32/33/27
f 33/34/28 34/36/30 36/37/31
f 35/38/32 36/37/31 38/39/33
f 37/40/34 38/39/33 39/41/35
f 22/42/36 39/41/35 40/43/37
f 23/44/38 40/43/37 25/25/20
f 25/25/20 3/2/2 2/1/1
f 28/28/23 26/26/21 2/1/1
f 30/30/25 28/28/23 6/5/5
f 32/33/27 30/32/25 8/8/6
f 32/33/27 10/7/7 12/11/10
f 34/36/30 12/11/10 14/12/11
f 36/37/31 14/12/11 16/14/13
f 38/39/33 16/14/13 18/15/14
f 39/41/35 18/15/14 20/16/15
f 25/25/20 40/43/37 20/16/15
f 13/45/39 11/46/9 9/47/40
f 15/18/12 9/47/40 7/48/8
f 15/18/12 7/48/8 5/49/4
f 15/18/12 5/49/4 1/50/41
f 15/18/12 1/50/41 4/19/3
f 37/51/18 22/21/18 33/52/18
f 31/53/18 33/52/18 22/21/18
f 29/54/18 31/53/18 22/21/18
f 27/55/18 29/54/18 22/21/18
f 21/56/18 27/55/18 22/21/18
f 42/57/42 43/58/42 44/59/42
f 46/60/43 43/61/43 42/57/43
f 44/62/44 43/61/44 46/60/44
f 42/63/45 41/64/45 45/65/45
f 48/66/46 49/67/46 50/68/46
f 52/69/47 49/70/47 48/66/47
f 50/71/48 49/70/48 52/69/48
f 48/72/49 47/73/49 51/74/49
f 54/57/50 55/58/50 56/59/50
f 58/60/51 55/61/51 54/57/51
f 56/62/52 55/61/52 58/60/52
f 54/63/53 53/64/53 57/65/53
f 60/57/54 61/58/54 62/59/54
f 64/60/55 61/61/55 60/57/55
f 62/62/56 61/61/56 64/60/56
f 60/63/57 59/64/57 63/65/57
f 66/57/58 67/58/58 68/59/58
f 70/60/59 67/61/59 66/57/59
f 68/62/60 67/61/60 70/60/60
f 66/63/61 65/64/61 69/65/61
f 72/66/62 73/67/62 74/68/62
f 76/69/63 73/70/63 72/66/63
f 74/71/64 73/70/64 76/69/64
f 72/72/65 71/73/65 75/74/65
f 78/66/66 79/67/66 80/68/66
f 82/69/67 79/70/67 78/66/67
f 80/71/68 79/70/68 82/69/68
f 78/72/69 77/73/69 81/74/69
f 84/66/70 85/67/70 86/68/70
f 88/69/71 85/70/71 84/66/71
f 86/71/72 85/70/72 88/69/72
f 84/72/73 83/73/73 87/74/73
f 1/75/41 2/1/1 4/3/3
f 1/75/41 5/4/4 2/1/1
f 7/76/8 8/6/6 5/4/4
f 9/77/40 10/7/7 7/9/8
f 9/77/40 11/10/9 10/7/7
f 13/78/39 14/12/11 11/10/9
f 13/78/39 15/13/12 14/12/11
f 17/17/16 18/15/14 15/13/12
f 19/79/17 20/16/15 17/17/16
f 19/79/17 4/3/3 20/16/15
f 17/80/16 15/18/12 19/20/17
f 21/56/18 22/21/18 24/23/18
f 21/27/22 24/24/19 26/26/21
f 27/29/24 21/27/22 28/28/23
f 29/81/26 27/29/24 30/30/25
f 31/35/29 29/31/26 32/33/27
f 34/36/30 33/34/28 32/33/27
f 35/38/32 33/34/28 36/37/31
f 37/40/34 35/38/32 38/39/33
f 22/42/36 37/40/34 39/41/35
f 23/44/38 22/42/36 40/43/37
f 24/24/19 23/44/38 25/25/20
f 26/26/21 25/25/20 2/1/1
f 6/5/5 28/28/23 2/1/1
f 8/6/6 30/30/25 6/5/5
f 10/7/7 32/33/27 8/8/6
f 34/36/30 32/33/27 12/11/10
f 36/37/31 34/36/30 14/12/11
f 38/39/33 36/37/31 16/14/13
f 39/41/35 38/39/33 18/15/14
f 40/43/37 39/41/35 20/16/15
f 3/2/2 25/25/20 20/16/15
f 15/18/12 13/45/39 9/47/40
f 35/82/18 37/51/18 33/52/18
f 41/83/42 42/57/42 44/59/42
f 45/65/43 46/60/43 42/57/43
f 47/84/46 48/66/46 50/68/46
f 51/74/47 52/69/47 48/66/47
f 53/83/50 54/57/50 56/59/50
f 57/65/51 58/60/51 54/57/51
f 59/83/54 60/57/54 62/59/54
f 63/65/55 64/60/55 60/57/55
f 65/83/58 66/57/58 68/59/58
f 69/65/59 70/60/59 66/57/59
f 71/84/62 72/66/62 74/68/62
f 75/74/63 76/69/63 72/66/63
f 77/84/66 78/66/66 80/68/66
f 81/74/67 82/69/67 78/66/67
f 83/84/70 84/66/70 86/68/70
f 87/74/71 88/69/71 84/66/71
